# Blender v2.83.4 OBJ File: 'cube_scene.blend'
# www.blender.org
mtllib cube_scene.mtl
o Cube
v 1.907378 2.368580 2.153119
v 1.907378 0.000001 2.153119
v -0.290430 2.368580 3.036186
v -0.290430 0.000001 3.036186
v 1.024312 2.368580 -0.044689
v 1.024312 0.000001 -0.044689
v -1.173496 2.368580 0.838377
v -1.173496 0.000001 0.838377
vt 0.875000 0.500000
vt 0.625000 0.750000
vt 0.625000 0.500000
vt 0.375000 1.000000
vt 0.375000 0.750000
vt 0.625000 0.000000
vt 0.375000 0.250000
vt 0.375000 0.000000
vt 0.375000 0.500000
vt 0.125000 0.750000
vt 0.125000 0.500000
vt 0.625000 0.250000
vt 0.875000 0.750000
vt 0.625000 1.000000
vn 0.0000 1.0000 0.0000
vn -0.9279 0.0000 0.3728
vn -0.3728 0.0000 -0.9279
vn 0.0000 -1.0000 -0.0000
vn 0.3728 0.0000 0.9279
vn 0.9279 0.0000 -0.3728
usemtl cube
s off
f 5/1/1 3/2/1 1/3/1
f 3/2/2 8/4/2 4/5/2
f 7/6/3 6/7/3 8/8/3
f 2/9/4 8/10/4 6/11/4
f 1/3/5 4/5/5 2/9/5
f 5/12/6 2/9/6 6/7/6
f 5/1/1 7/13/1 3/2/1
f 3/2/2 7/14/2 8/4/2
f 7/6/3 5/12/3 6/7/3
f 2/9/4 4/5/4 8/10/4
f 1/3/5 3/2/5 4/5/5
f 5/12/6 1/3/6 2/9/6
o Plane
v -2.490905 0.000000 -4.498989
v -2.490905 0.000000 3.783882
v 5.791966 0.000000 -4.498989
v 5.791966 0.000000 3.783882
vt 1.000000 0.000000
vt 0.000000 1.000000
vt 0.000000 0.000000
vt 1.000000 1.000000
vn 0.0000 1.0000 0.0000
usemtl floor
s off
f 10/15/7 11/16/7 9/17/7
f 10/15/7 12/18/7 11/16/7
o Cube.001
v 2.451057 0.000000 -1.755724
v 2.451057 4.295899 -1.755724
v 4.323606 0.000000 -1.053185
v 4.323606 4.295899 -1.053185
v 1.748518 0.000000 0.116825
v 1.748518 4.295899 0.116825
v 3.621067 0.000000 0.819364
v 3.621067 4.295899 0.819364
vt 0.625000 0.000000
vt 0.375000 0.250000
vt 0.375000 0.000000
vt 0.625000 0.250000
vt 0.375000 0.500000
vt 0.625000 0.500000
vt 0.375000 0.750000
vt 0.625000 0.750000
vt 0.375000 1.000000
vt 0.125000 0.750000
vt 0.125000 0.500000
vt 0.875000 0.500000
vt 0.625000 1.000000
vt 0.875000 0.750000
vn 0.3513 0.0000 -0.9363
vn 0.9363 0.0000 0.3513
vn -0.3513 0.0000 0.9363
vn -0.9363 0.0000 -0.3513
vn 0.0000 -1.0000 0.0000
vn 0.0000 1.0000 0.0000
usemtl cuboid
s off
f 14/19/8 15/20/8 13/21/8
f 16/22/9 19/23/9 15/20/9
f 20/24/10 17/25/10 19/23/10
f 18/26/11 13/27/11 17/25/11
f 19/23/12 13/28/12 15/29/12
f 16/30/13 18/26/13 20/24/13
f 14/19/8 16/22/8 15/20/8
f 16/22/9 20/24/9 19/23/9
f 20/24/10 18/26/10 17/25/10
f 18/26/11 14/31/11 13/27/11
f 19/23/12 17/25/12 13/28/12
f 16/30/13 14/32/13 18/26/13
o Plane.001
v -2.490906 0.000000 3.783882
v -2.490906 0.000000 -4.498989
v -2.490905 8.282871 3.783882
v -2.490906 8.282871 -4.498989
vt 1.000000 0.000000
vt 0.000000 1.000000
vt 0.000000 0.000000
vt 1.000000 1.000000
vn 1.0000 -0.0000 -0.0000
usemtl green_wall
s off
f 22/33/14 23/34/14 21/35/14
f 22/33/14 24/36/14 23/34/14
o Plane.002
v 5.791966 0.000000 -4.498989
v 5.791965 0.000000 3.783882
v 5.791965 8.282871 -4.498989
v 5.791965 8.282871 3.783882
vt 1.000000 0.000000
vt 0.000000 1.000000
vt 0.000000 0.000000
vt 1.000000 1.000000
vn -1.0000 0.0000 -0.0000
usemtl red_wall
s off
f 26/37/15 27/38/15 25/39/15
f 26/37/15 28/40/15 27/38/15
o Plane.003
v -2.490905 0.000000 -4.498989
v 5.791966 0.000000 -4.498989
v -2.490905 8.282871 -4.498989
v 5.791966 8.282871 -4.498989
vt 1.000000 0.000000
vt 0.000000 1.000000
vt 0.000000 0.000000
vt 1.000000 1.000000
vn 0.0000 0.0000 1.0000
usemtl back_wall
s off
f 30/41/16 31/42/16 29/43/16
f 30/41/16 32/44/16 31/42/16
o Plane.004
v -2.490905 8.282874 -4.498989
v 5.791966 8.282875 -4.498989
v -2.490905 8.282869 3.783882
v 5.791966 8.282870 3.783882
v 0.817735 8.282873 -1.609875
v 2.817777 8.282873 -1.609890
v 2.817771 8.282872 0.390150
v 0.817734 8.282872 0.390186
vt 0.399456 0.590275
vt 0.000000 1.000000
vt 0.000000 0.000000
vt 0.640922 0.590271
vt 1.000000 0.000000
vt 1.000000 1.000000
vt 0.399456 0.348806
vt 0.640923 0.348804
vn 0.0000 -1.0000 -0.0000
usemtl ceiling
s off
f 40/45/17 35/46/17 33/47/17
f 39/48/17 34/49/17 36/50/17
f 33/47/17 34/49/17 37/51/17
f 34/49/17 38/52/17 37/51/17
f 37/51/17 40/45/17 33/47/17
f 36/50/17 35/46/17 40/45/17
f 39/48/17 38/52/17 34/49/17
f 36/50/17 40/45/17 39/48/17
o Plane.005_Plane.006
v 0.817729 8.282872 -1.609731
v 2.817729 8.282872 -1.609731
v 0.817729 8.282872 0.390269
v 2.817729 8.282872 0.390269
vt 1.000000 0.000000
vt 0.000000 1.000000
vt 0.000000 0.000000
vt 1.000000 1.000000
vn 0.0000 -1.0000 0.0000
usemtl lamp
s off
f 42/53/18 43/54/18 41/55/18
f 42/53/18 44/56/18 43/54/18